<svg xmlns="http://www.w3.org/2000/svg" viewBox="0 0 420 120" width="420" height="120" role="img" aria-labelledby="hsLockTitle">
  <title id="hsLockTitle">Hire Slice Pizza Co.</title>
  <defs><clipPath id="hsLockClip"><circle cx="60" cy="60" r="38"/></clipPath></defs>

  <!-- mark -->
  <circle cx="60" cy="60" r="54" fill="#C6362B"/>
  <circle cx="60" cy="60" r="45" fill="#F6E7C6" stroke="#E2A33C" stroke-width="4"/>
  <g clip-path="url(#hsLockClip)">
    <path d="M22 118 q4-26 38-30 q34 4 38 30 Z" fill="#8E8177" stroke="#3B2B25" stroke-width="3.6" stroke-linejoin="round"/>
    <circle cx="60" cy="62" r="34" fill="#F5CFA8" stroke="#3B2B25" stroke-width="3.6"/>
    <path d="M23 59 q-1-31 37-31 q38 0 37 31 q-7-15-20-17 q-20 8-38 3 q-11 4-16 14 Z" fill="#241A17"/>
    <path d="M39 53 q8-5 16-1" fill="none" stroke="#241A17" stroke-width="3.6" stroke-linecap="round"/>
    <path d="M81 53 q-8-5-16-1" fill="none" stroke="#241A17" stroke-width="3.6" stroke-linecap="round"/>
    <path d="M44 66 q6-6 12 0" fill="none" stroke="#241A17" stroke-width="4" stroke-linecap="round"/>
    <path d="M64 66 q6-6 12 0" fill="none" stroke="#241A17" stroke-width="4" stroke-linecap="round"/>
    <path d="M46 76 q14 16 28 0 Z" fill="#3B2B25"/>
    <path d="M49 78 q11 4 22 0 Z" fill="#FFFFFF"/>
    <path d="M46 76 q14 16 28 0" fill="none" stroke="#3B2B25" stroke-width="3.4" stroke-linejoin="round" stroke-linecap="round"/>
    <circle cx="38" cy="77" r="4.2" fill="#E89C8A" opacity=".55"/>
    <circle cx="82" cy="77" r="4.2" fill="#E89C8A" opacity=".55"/>
  </g>
  <circle cx="60" cy="60" r="54" fill="none" stroke="#8E2018" stroke-width="3"/>

  <!-- wordmark -->
  <text x="132" y="59" font-family="Georgia, 'Times New Roman', serif" font-size="38" font-weight="700"
        fill="#C6362B" letter-spacing="1">Hire Slice</text>
  <text x="134" y="84" font-family="'Helvetica Neue', Arial, sans-serif" font-size="13" font-weight="600"
        fill="#8E8177" letter-spacing="6.5">PIZZA CO.</text>
  <path d="M132 70 h176" stroke="#E2A33C" stroke-width="2.5" stroke-linecap="round"/>
</svg>
